<svg version="1.1" id="Layer_1" xmlns="http://www.w3.org/2000/svg" xmlns:xlink="http://www.w3.org/1999/xlink" x="0px" y="0px"
	 width="100%" viewBox="0 0 128 128" enable-background="new 0 0 128 128" xml:space="preserve">
<path fill="#000000" opacity="1.000000" stroke="none" 
	d="
M93.000000,129.000000 
	C62.000000,129.000000 31.500000,129.000000 1.000000,129.000000 
	C1.000000,86.333336 1.000000,43.666668 1.000000,1.000000 
	C43.666668,1.000000 86.333336,1.000000 129.000000,1.000000 
	C129.000000,43.666668 129.000000,86.333336 129.000000,129.000000 
	C117.166664,129.000000 105.333336,129.000000 93.000000,129.000000 
M85.021004,46.070724 
	C82.376884,42.649921 80.375221,38.247459 76.956589,36.010105 
	C69.551979,31.164103 57.706387,33.885300 52.115005,40.712608 
	C45.700054,48.545536 45.113255,61.080013 51.094135,67.920761 
	C51.938374,68.886375 53.995975,68.791138 55.491955,69.186928 
	C55.987194,67.172089 57.549046,64.538757 56.799320,63.245823 
	C52.834023,56.407486 53.161163,49.987774 59.001572,43.970585 
	C59.164642,46.156124 59.396511,47.872829 59.403652,49.590473 
	C59.443054,59.070976 59.427570,68.551704 59.431084,78.032356 
	C59.431454,79.030487 59.036331,80.321419 59.513596,80.968010 
	C60.631664,82.482742 62.167976,83.688751 63.534962,85.019753 
	C64.592239,83.682175 66.003220,82.489113 66.622826,80.972702 
	C67.523460,78.768509 67.235886,74.738831 68.522453,74.239830 
	C81.222336,69.314125 86.544952,60.293610 85.021004,46.070724 
z"/>
<path fill="#F0F0F0" opacity="1.000000" stroke="none" 
	d="
M85.023819,46.510815 
	C86.544952,60.293610 81.222336,69.314125 68.522453,74.239830 
	C67.235886,74.738831 67.523460,78.768509 66.622826,80.972702 
	C66.003220,82.489113 64.592239,83.682175 63.534962,85.019753 
	C62.167976,83.688751 60.631664,82.482742 59.513596,80.968010 
	C59.036331,80.321419 59.431454,79.030487 59.431084,78.032356 
	C59.427570,68.551704 59.443054,59.070976 59.403652,49.590473 
	C59.396511,47.872829 59.164642,46.156124 59.001572,43.970585 
	C53.161163,49.987774 52.834023,56.407486 56.799320,63.245823 
	C57.549046,64.538757 55.987194,67.172089 55.491955,69.186928 
	C53.995975,68.791138 51.938374,68.886375 51.094135,67.920761 
	C45.113255,61.080013 45.700054,48.545536 52.115005,40.712608 
	C57.706387,33.885300 69.551979,31.164103 76.956589,36.010105 
	C80.375221,38.247459 82.376884,42.649921 85.023819,46.510815 
M66.680420,47.141045 
	C66.680420,53.704220 66.680420,60.267395 66.680420,67.011612 
	C75.951469,64.236755 80.793610,54.967247 77.765602,46.858437 
	C75.683891,41.283714 69.447342,39.263866 63.399521,41.965038 
	C64.460442,43.366100 65.557610,44.815029 66.680420,47.141045 
z"/>
<path fill="#070707" opacity="1.000000" stroke="none" 
	d="
M66.667603,46.702503 
	C65.557610,44.815029 64.460442,43.366100 63.399521,41.965038 
	C69.447342,39.263866 75.683891,41.283714 77.765602,46.858437 
	C80.793610,54.967247 75.951469,64.236755 66.680420,67.011612 
	C66.680420,60.267395 66.680420,53.704220 66.667603,46.702503 
z"/>
</svg>